<svg width="81" height="71" viewBox="0 0 81 71" fill="none" xmlns="http://www.w3.org/2000/svg">
<path d="M25.272 26L25.2 12.644L18.72 23.516H15.552L9.108 13.004V26H2.52V0.799998H8.388L17.244 15.344L25.884 0.799998H31.752L31.824 26H25.272ZM42.8077 0.799998H49.9357V26H42.8077V0.799998ZM60.9469 0.799998H68.0749V20.348H80.0989V26H60.9469V0.799998Z" fill="black"/>
<path d="M7.884 50.452H0.144V44.8H22.716V50.452H15.012V70H7.884V50.452ZM37.728 70.504C35.064 70.504 32.664 69.94 30.528 68.812C28.416 67.684 26.748 66.124 25.524 64.132C24.324 62.14 23.724 59.896 23.724 57.4C23.724 54.904 24.324 52.66 25.524 50.668C26.748 48.676 28.416 47.116 30.528 45.988C32.664 44.86 35.064 44.296 37.728 44.296C40.392 44.296 42.78 44.86 44.892 45.988C47.028 47.116 48.696 48.676 49.896 50.668C51.12 52.66 51.732 54.904 51.732 57.4C51.732 59.896 51.12 62.14 49.896 64.132C48.696 66.124 47.028 67.684 44.892 68.812C42.78 69.94 40.392 70.504 37.728 70.504ZM37.728 64.6C39 64.6 40.152 64.3 41.184 63.7C42.216 63.1 43.032 62.26 43.632 61.18C44.232 60.076 44.532 58.816 44.532 57.4C44.532 55.984 44.232 54.736 43.632 53.656C43.032 52.552 42.216 51.7 41.184 51.1C40.152 50.5 39 50.2 37.728 50.2C36.456 50.2 35.304 50.5 34.272 51.1C33.24 51.7 32.424 52.552 31.824 53.656C31.224 54.736 30.924 55.984 30.924 57.4C30.924 58.816 31.224 60.076 31.824 61.18C32.424 62.26 33.24 63.1 34.272 63.7C35.304 64.3 36.456 64.6 37.728 64.6ZM79.4413 44.8V70H73.5733L62.4493 56.572V70H55.4653V44.8H61.3333L72.4573 58.228V44.8H79.4413Z" fill="black" fill-opacity="0.82"/>
</svg>
